<?xml version="1.0" encoding="utf-8"?>
<!-- Generator: Adobe Illustrator 23.0.3, SVG Export Plug-In . SVG Version: 6.00 Build 0)  -->
<svg version="1.1" id="Behance_alt" xmlns="http://www.w3.org/2000/svg" xmlns:xlink="http://www.w3.org/1999/xlink" x="0px"
	 y="0px" viewBox="0 0 88 56" style="enable-background:new 0 0 88 56;" xml:space="preserve">
<path d="M76.1,11.1H56.2V6.3h19.9V11.1L76.1,11.1z M43.7,30.4c1.5,2.2,2.3,4.9,2.3,8c0,2.5-0.5,4.7-1.5,6.6c-1,1.9-2.3,3.4-3.9,4.5
	c-1.7,1.2-3.6,2-5.7,2.6c-2.1,0.6-4.3,0.9-6.5,0.9H4.1V3h23.6c2.4,0,4.5,0.2,6.5,0.6s3.6,1.1,5.1,2.1c1.4,0.9,2.5,2.2,3.3,3.8
	s1.1,3.5,1.1,5.9c0,2.5-0.6,4.6-1.7,6.3c-1.1,1.7-2.8,3.1-5.1,4.1C39.9,26.7,42.2,28.2,43.7,30.4z M14.9,22.8h10.9
	c1.9,0,3.5-0.5,4.7-1.4s1.8-2.4,1.8-4.5c0-1.1-0.2-2.1-0.6-2.8s-1-1.3-1.7-1.7s-1.5-0.7-2.4-0.9s-1.8-0.2-2.8-0.2h-9.9V22.8
	L14.9,22.8z M34.4,37.2c0-2.5-0.7-4.3-2.1-5.4c-1.4-1.1-3.3-1.6-5.6-1.6H14.9v13.5h11.5c1.1,0,2.1-0.1,3-0.3c1-0.2,1.8-0.6,2.5-1
	c0.7-0.5,1.3-1.1,1.8-2C34.2,39.6,34.4,38.5,34.4,37.2z M83.8,36.7H58.2c0,2.8,0.9,5.5,2.4,6.9s3.6,2.1,6.3,2.1c2,0,3.7-0.5,5.1-1.5
	s2.3-2.1,2.6-3.2h8.6c-1.4,4.3-3.5,7.3-6.3,9.2C74,52.1,70.6,53,66.5,53c-2.8,0-5.3-0.5-7.6-1.3c-2.3-0.9-4.1-2.2-5.7-3.8
	c-1.6-1.7-2.8-3.6-3.6-5.9c-0.9-2.3-1.3-4.8-1.3-7.6c0-2.7,0.4-5.1,1.3-7.4c0.9-2.3,2.1-4.3,3.7-5.9c1.6-1.7,3.5-3,5.8-4
	c2.2-1,4.7-1.4,7.4-1.4c3,0,5.6,0.6,7.9,1.8c2.2,1.2,4.1,2.7,5.5,4.7s2.5,4.2,3.1,6.7C83.8,31.3,84,33.9,83.8,36.7z M74.1,30.5
	c-0.2-2.5-1.1-4.3-2.2-5.6s-3.1-2-5.5-2c-1.6,0-2.8,0.3-3.9,0.8c-1,0.5-1.8,1.2-2.5,2c-0.6,0.8-1.1,1.6-1.3,2.5s-0.4,1.7-0.4,2.3
	C58.3,30.5,74.1,30.5,74.1,30.5z"/>
</svg>
