<?xml version="1.0" encoding="utf-8"?>
<!-- Generator: Adobe Illustrator 23.0.3, SVG Export Plug-In . SVG Version: 6.00 Build 0)  -->
<svg version="1.1" id="Layer_1" xmlns="http://www.w3.org/2000/svg" xmlns:xlink="http://www.w3.org/1999/xlink" x="0px" y="0px"
	 viewBox="0 0 56 56" style="enable-background:new 0 0 56 56;" xml:space="preserve">
<g>
	<path d="M26.8,20.7c-2.8-5.3-5.8-10.3-8.9-15.3C10.2,8.6,4.6,15.8,3.3,24.4C10.8,24.6,18.6,23.3,26.8,20.7z"/>
	<path d="M29.7,19.6c5.6-2.2,11.1-5,16.7-8.4C41.8,6.1,35.3,3,28,3c-2.5,0-5,0.3-7.2,1.1C23.9,9.1,26.9,14.3,29.7,19.6z"/>
	<path d="M34.1,28.8c4.5-1.3,9.4-2,14.2-2c1.6,0,3,0,4.5,0.2c-0.2-5-1.9-9.7-4.5-13.4c-5.8,3.8-11.6,6.7-17.2,8.9
		C32.1,24.6,33.2,26.6,34.1,28.8z"/>
	<path d="M31.1,29.7c-0.9-2.2-2-4.2-3.1-6.4c-7.8,2.7-15.5,4.1-22.8,4.1c-0.8,0-1.4,0-2.2,0c0,0.2,0,0.3,0,0.6
		c0,6.3,2.3,11.9,6.1,16.3C15.3,37.5,22.8,32.7,31.1,29.7z"/>
	<path d="M48.5,30c-4.4,0-8.8,0.6-13,1.7c2.5,5.5,4.5,11.2,6.6,17C48.2,44.7,52.2,38,53,30.3C51.4,30,49.9,30,48.5,30z"/>
	<path d="M32.5,32.7c-8,2.7-15.2,7.3-21.3,13.9C15.7,50.5,21.6,53,28,53c4.1,0,7.8-0.9,11.3-2.7C37.2,44.3,35,38.5,32.5,32.7z"/>
</g>
</svg>
