<?xml version="1.0" encoding="utf-8"?>
<!-- Generator: Adobe Illustrator 23.0.3, SVG Export Plug-In . SVG Version: 6.00 Build 0)  -->
<svg version="1.1" id="Layer_1" xmlns="http://www.w3.org/2000/svg" xmlns:xlink="http://www.w3.org/1999/xlink" x="0px" y="0px"
	 viewBox="0 0 90 56" style="enable-background:new 0 0 90 56;" xml:space="preserve">
<g>
	<path d="M8.1,7c2.1,1.1,32,17.4,33.1,18s2.2,0.9,4,0.9s2.9-0.3,4-0.9c1.1-0.6,31-16.9,33.1-18c0.8-0.4,2.1-1.2,2.4-2
		c0.5-1.5,0-2.1-2.2-2.1H45.2H7.9C5.7,3,5.1,3.6,5.6,5.1C5.9,5.9,7.3,6.6,8.1,7z"/>
	<path d="M84,7.9C82.4,8.7,68,19,58.5,25.1l16.1,18.1c0.4,0.4,0.6,0.9,0.4,1.1c-0.2,0.2-0.7,0.1-1.2-0.3L54.5,27.8
		c-2.9,1.9-5,3.2-5.3,3.4c-1.5,0.8-2.6,0.9-4,0.9c-1.4,0-2.5-0.1-4-0.9c-0.4-0.2-2.4-1.5-5.3-3.4L16.6,44c-0.4,0.4-0.9,0.5-1.2,0.3
		c-0.2-0.2-0.1-0.7,0.3-1.1l16-18.1C22.3,19,7.8,8.7,6.2,7.9C4.5,7,4.4,8.1,4.4,8.9c0,0.8,0,40,0,40C4.4,50.7,7.1,53,9,53h36.2h36.2
		c1.9,0,4.2-2.3,4.2-4.1c0,0,0-39.3,0-40C85.6,8.1,85.7,7,84,7.9z"/>
</g>
</svg>
