<?xml version="1.0" encoding="utf-8"?>
<!-- Generator: Adobe Illustrator 23.0.3, SVG Export Plug-In . SVG Version: 6.00 Build 0)  -->
<svg version="1.1" id="Layer_1" xmlns="http://www.w3.org/2000/svg" xmlns:xlink="http://www.w3.org/1999/xlink" x="0px" y="0px"
	 viewBox="0 0 56 56" style="enable-background:new 0 0 56 56;" xml:space="preserve">
<g>
	<circle cx="28" cy="28" r="8.3"/>
	<path d="M38.4,3H17.6C9.5,3,3,9.5,3,17.6v20.8C3,46.5,9.5,53,17.6,53h20.8c8,0,14.6-6.5,14.6-14.6V17.6C53,9.5,46.5,3,38.4,3z
		 M28,40.5c-6.9,0-12.5-5.6-12.5-12.5S21.1,15.5,28,15.5S40.5,21.1,40.5,28S34.9,40.5,28,40.5z M42.6,15.5c-1.1,0-2.1-0.9-2.1-2.1
		s0.9-2.1,2.1-2.1c1.2,0,2.1,0.9,2.1,2.1S43.7,15.5,42.6,15.5z"/>
</g>
</svg>
