<svg xmlns="http://www.w3.org/2000/svg" viewBox="0 0 96.93 111.26"><defs><style>.cls-1{fill:#4A00C2;stroke:#fff;stroke-miterlimit:10;stroke-width:0.6px;}</style></defs><title>Asset 2</title><g id="Layer_2" data-name="Layer 2"><g id="Layer_3" data-name="Layer 3"><path class="cls-1" d="M35,85.43,7.68,101.22a.38.38,0,0,1-.58-.33V51.49a3.41,3.41,0,0,0-1.7-2.94h0A3.4,3.4,0,0,0,.3,51.49v56a3.43,3.43,0,0,0,5.15,3l1.72-1L35.12,93.37l6.88-4,.23-.14,5.15-3a3.43,3.43,0,0,0,1.72-3V65.75L59,71.37l5.09,2.94a3.44,3.44,0,0,0,3.43,0l5.08-2.94L93.27,59.43l1.65-1a3.44,3.44,0,0,0,0-5.95l-1.65-1L49.1,26.08l-1.65-.95a3.43,3.43,0,0,0-5.15,3V54l-.23-.13-6.9-4L8.11,34.24a2,2,0,0,1-1-1.75V10.26a.38.38,0,0,1,.58-.33l22,12.69a3.4,3.4,0,0,0,5.1-2.95h0a3.37,3.37,0,0,0-1.7-2.94L7.1,1.74,5.4.76A3.4,3.4,0,0,0,.3,3.7v32a3.42,3.42,0,0,0,1.72,3L16.3,46.87v.06L35.06,57.75l6.84,4V80.3a2,2,0,0,1-1,1.75ZM65,67.05,49.1,57.9V34.44a.38.38,0,0,1,.58-.33l36.6,21.12a.39.39,0,0,1,0,.67L67,67.05A2,2,0,0,1,65,67.05Z"/></g></g></svg>